<svg viewBox="0 0 189 44" fill="none" xmlns="http://www.w3.org/2000/svg">
<path d="M44.8616 1H49.4043C49.8036 1 50 1.20386 50 1.59843V30.9741C50 31.3753 49.7971 31.5726 49.4043 31.5726H44.8616C44.4624 31.5726 44.266 31.3753 44.266 30.9741V29.1131C44.266 29.0342 44.2333 28.975 44.1744 28.9355C44.1154 28.8961 44.0434 28.9158 43.9649 28.9947C42.5707 31.0004 40.3779 32 37.3865 32C34.6766 32 32.4314 31.1977 30.6575 29.5997C28.8837 27.9951 28 25.6737 28 22.629V1.60501C28 1.20386 28.1964 1.00657 28.5957 1.00657H33.0794C33.4787 1.00657 33.6751 1.21044 33.6751 1.60501V21.0638C33.6751 22.9446 34.1202 24.4045 35.0235 25.4501C35.9203 26.4892 37.2032 27.0153 38.8789 27.0153C40.5153 27.0153 41.8179 26.4629 42.7932 25.3647C43.7685 24.2664 44.2594 22.7737 44.2594 20.8863V1.60501C44.2594 1.19728 44.4624 1 44.8616 1Z" fill="#16345F"/>
<path d="M90.9997 29.5313C89.0353 27.8832 87.8631 25.6414 87.4702 22.799C87.1546 20.7706 87 18.4954 87 15.9733C87 13.4112 87.1546 11.156 87.4702 9.20767C87.8631 6.40534 89.0417 4.17014 90.9997 2.50208C92.9577 0.834028 95.4696 0 98.529 0C101.55 0 104.036 0.834028 106 2.50208C107.965 4.17014 109.137 6.38533 109.53 9.14763C109.845 10.8957 110 13.171 110 15.9733C110 18.7756 109.845 21.0509 109.53 22.799C109.137 25.6414 107.971 27.8899 106.026 29.5313C104.087 31.1793 101.582 32 98.5225 32C95.4632 32 92.9642 31.1793 90.9997 29.5313ZM102.207 25.5413C103.205 24.6072 103.823 23.3661 104.062 21.8249C104.255 19.9967 104.358 18.0484 104.358 15.9733C104.358 13.8582 104.261 11.9299 104.062 10.1818C103.83 8.64053 103.211 7.3995 102.207 6.46539C101.208 5.53128 99.9588 5.06422 98.471 5.06422C97.0218 5.06422 95.7916 5.53128 94.7933 6.46539C93.795 7.3995 93.1767 8.64053 92.9384 10.1818C92.7838 11.603 92.7001 13.5313 92.7001 15.9733C92.7001 18.4554 92.7774 20.4037 92.9384 21.8249C93.1703 23.3661 93.7886 24.6072 94.7933 25.5413C95.7916 26.4754 97.0347 26.9425 98.529 26.9425C99.9846 26.9425 101.208 26.4754 102.207 25.5413Z" fill="#16345F"/>
<path d="M74.7998 1.49094H79.3972C79.8013 1.49094 80 1.69387 80 2.08662V30.7249C80 39.575 75.1973 44 65.5985 44C64.7506 44 64.108 43.9804 63.6642 43.9411C63.2601 43.9018 63.0613 43.6793 63.0613 43.2865L63.1806 39.2804C63.1806 39.084 63.2402 38.9335 63.3594 38.8353C63.4787 38.7371 63.6178 38.7044 63.7834 38.7436C67.5726 38.9007 70.2555 38.3247 71.8321 37.009C73.4087 35.6933 74.1904 33.4611 74.1904 30.3125V29.1735C74.1904 29.095 74.1639 29.0361 74.0976 28.9968C74.038 28.9575 73.9652 28.9772 73.8857 29.0557C72.3157 30.9671 70.1164 31.9228 67.2877 31.9228C64.6645 31.9228 62.4585 31.1569 60.6633 29.6187C58.8681 28.0869 57.7684 25.9399 57.3643 23.1906C57.1192 21.9141 57 19.7409 57 16.6709C57 13.3652 57.1391 11.048 57.424 9.73223C57.7883 7.0615 58.8217 4.94063 60.5374 3.36307C62.2532 1.78551 64.4194 1 67.0426 1C69.9441 1 72.2229 1.93606 73.879 3.80819C73.9585 3.88674 74.0314 3.90638 74.091 3.86711C74.1506 3.82783 74.1838 3.76891 74.1838 3.69036V2.07353C74.197 1.69386 74.3957 1.49094 74.7998 1.49094ZM74.197 16.6185C74.197 14.3864 74.1374 12.4946 74.0181 10.9367C73.8592 9.50312 73.2895 8.31831 72.3223 7.38225C71.3551 6.44619 70.123 5.97488 68.6325 5.97488C67.1817 5.97488 65.9628 6.44619 64.9692 7.38225C63.9821 8.31831 63.3859 9.50312 63.1872 10.9367C62.9421 12.4946 62.8229 14.3864 62.8229 16.6185C62.8229 18.6936 62.9222 20.5264 63.1276 22.1171C63.3263 23.5899 63.9358 24.7878 64.9427 25.7042C65.9496 26.6206 67.2016 27.0789 68.6921 27.0789C70.1826 27.0789 71.4147 26.6206 72.3819 25.7042C73.3491 24.7878 73.9122 23.6095 74.0778 22.176C74.1573 20.1075 74.197 18.255 74.197 16.6185Z" fill="#16345F"/>
<path d="M17.3524 1H12.467C12.0375 1 11.8264 1.20342 11.8264 1.59713V30.2791C11.8264 33.4354 10.9887 35.673 9.3203 36.9919C7.65193 38.3108 4.80094 38.8883 0.767308 38.7308C0.59836 38.6914 0.443492 38.7177 0.316781 38.8227C0.19007 38.9211 0.126711 39.072 0.126711 39.2689L0 43.2848C0 43.685 0.211188 43.9016 0.640597 43.9409C1.11224 43.9803 1.79507 44 2.69613 44C12.8964 44 18 39.9316 18 31.06V1.59713C18 1.19685 17.7818 1 17.3524 1Z" fill="#16345F"/>
<path d="M116.123 6.87663C115.37 6.12322 115 5.16433 115 3.99996C115 2.83559 115.377 1.86984 116.123 1.12327C116.877 0.369858 117.836 0 119 0C120.164 0 121.13 0.376708 121.877 1.12327C122.63 1.87669 123 2.83559 123 3.99996C123 5.17118 122.623 6.13007 121.877 6.87663C121.123 7.63005 120.164 7.99991 119 7.99991C117.836 8.00676 116.877 7.63005 116.123 6.87663Z" fill="#EB6209"/>
<path d="M133.786 0.388184H135.341C135.479 0.388184 135.545 0.454051 135.545 0.592376V14.4776C135.545 14.6159 135.479 14.6818 135.341 14.6818H133.786C133.648 14.6818 133.582 14.6159 133.582 14.4776V13.7859C133.582 13.7596 133.569 13.7398 133.543 13.7267C133.516 13.7135 133.496 13.7201 133.483 13.7464C132.996 14.4842 132.225 14.8464 131.178 14.8464C130.335 14.8464 129.656 14.6027 129.136 14.1087C128.616 13.6213 128.24 12.8638 127.99 11.8428C127.825 11.138 127.746 10.3608 127.746 9.51763C127.746 8.64816 127.812 7.87091 127.95 7.19246C128.359 5.15052 129.465 4.12955 131.277 4.12955C131.81 4.12955 132.252 4.21518 132.601 4.39302C132.956 4.57087 133.246 4.83434 133.477 5.19004C133.503 5.21638 133.529 5.22956 133.549 5.22956C133.569 5.22956 133.582 5.2098 133.582 5.17028V0.598964C133.582 0.460639 133.655 0.388184 133.786 0.388184ZM133.562 9.47811C133.562 8.45714 133.47 7.67988 133.279 7.15293C133.154 6.7182 132.97 6.38885 132.719 6.1649C132.469 5.94094 132.14 5.82897 131.731 5.82897C130.928 5.82897 130.368 6.25711 130.058 7.11341C129.841 7.72599 129.729 8.51642 129.729 9.4847C129.729 10.4661 129.814 11.2171 129.992 11.7506C130.275 12.6925 130.849 13.1602 131.705 13.1602C132.495 13.1602 133.022 12.7057 133.299 11.7901C133.477 11.2368 133.562 10.4727 133.562 9.47811Z" fill="#EB6209"/>
<path d="M144.847 5.07806C145.525 5.7104 145.868 6.54035 145.868 7.56132V14.4842C145.868 14.6225 145.802 14.6884 145.664 14.6884H144.109C143.971 14.6884 143.905 14.6225 143.905 14.4842V13.8913C143.905 13.865 143.892 13.8452 143.872 13.8386C143.852 13.8321 143.826 13.8452 143.8 13.8716C143.187 14.5237 142.337 14.853 141.244 14.853C140.361 14.853 139.604 14.6093 138.978 14.1285C138.352 13.6476 138.036 12.8638 138.036 11.7901C138.036 10.6769 138.398 9.82722 139.129 9.24757C139.861 8.66792 140.849 8.3781 142.1 8.3781H143.813C143.865 8.3781 143.892 8.35175 143.892 8.29906V7.726C143.892 7.13976 143.74 6.67868 143.431 6.33616C143.128 5.99364 142.686 5.82897 142.113 5.82897C141.665 5.82897 141.29 5.94094 141 6.1649C140.704 6.38885 140.526 6.69185 140.46 7.07389C140.447 7.19904 140.374 7.25833 140.236 7.25833L138.563 7.15952C138.51 7.15952 138.464 7.13976 138.418 7.10682C138.378 7.07389 138.365 7.02778 138.378 6.97509C138.458 6.13197 138.846 5.44693 139.531 4.91997C140.216 4.39302 141.079 4.13613 142.113 4.13613C143.259 4.12296 144.168 4.44571 144.847 5.07806ZM143.246 12.6596C143.688 12.3171 143.911 11.8626 143.911 11.2895V9.9853C143.911 9.93261 143.885 9.90626 143.832 9.90626H142.258C141.593 9.90626 141.059 10.0578 140.658 10.3542C140.256 10.6506 140.058 11.0919 140.058 11.6584C140.058 12.159 140.21 12.541 140.506 12.7913C140.809 13.0416 141.198 13.1668 141.692 13.1668C142.278 13.1734 142.798 13.0021 143.246 12.6596Z" fill="#EB6209"/>
<path d="M152.712 5.80283H150.894C150.842 5.80283 150.815 5.82918 150.815 5.88187V11.4742C150.815 12.034 150.927 12.4227 151.151 12.6466C151.375 12.8706 151.724 12.9826 152.205 12.9826H152.594C152.732 12.9826 152.798 13.0484 152.798 13.1867V14.4712C152.798 14.6095 152.732 14.6754 152.594 14.6754L151.797 14.6951C150.842 14.6951 150.124 14.5173 149.643 14.155C149.162 13.7927 148.918 13.1209 148.918 12.146V5.87529C148.918 5.82259 148.892 5.79624 148.839 5.79624H147.838C147.7 5.79624 147.634 5.73038 147.634 5.59205V4.49203C147.634 4.35371 147.7 4.28784 147.838 4.28784H148.839C148.892 4.28784 148.918 4.26149 148.918 4.2088V1.86386C148.918 1.72554 148.984 1.65967 149.122 1.65967H150.611C150.749 1.65967 150.815 1.72554 150.815 1.86386V4.2088C150.815 4.26149 150.842 4.28784 150.894 4.28784H152.712C152.851 4.28784 152.917 4.35371 152.917 4.49203V5.59205C152.917 5.73038 152.844 5.80283 152.712 5.80283Z" fill="#EB6209"/>
<path d="M161.388 5.07806C162.066 5.7104 162.409 6.54035 162.409 7.56132V14.4842C162.409 14.6225 162.343 14.6884 162.204 14.6884H160.65C160.511 14.6884 160.446 14.6225 160.446 14.4842V13.8913C160.446 13.865 160.432 13.8452 160.413 13.8386C160.393 13.8321 160.367 13.8452 160.34 13.8716C159.728 14.5237 158.878 14.853 157.785 14.853C156.902 14.853 156.144 14.6093 155.519 14.1285C154.893 13.6476 154.577 12.8638 154.577 11.7901C154.577 10.6769 154.939 9.82722 155.67 9.24757C156.401 8.66792 157.389 8.3781 158.641 8.3781H160.353C160.406 8.3781 160.432 8.35175 160.432 8.29906V7.726C160.432 7.13976 160.281 6.67868 159.971 6.33616C159.668 5.99364 159.227 5.82897 158.654 5.82897C158.206 5.82897 157.831 5.94094 157.541 6.1649C157.251 6.38885 157.067 6.69185 157.001 7.07389C156.988 7.19904 156.915 7.25833 156.777 7.25833L155.104 7.15952C155.051 7.15952 154.998 7.13976 154.959 7.10682C154.919 7.07389 154.906 7.02778 154.919 6.97509C154.998 6.13197 155.387 5.44693 156.072 4.91997C156.757 4.39302 157.62 4.13613 158.654 4.13613C159.8 4.12296 160.709 4.44571 161.388 5.07806ZM159.787 12.6596C160.228 12.3171 160.452 11.8626 160.452 11.2895V9.9853C160.452 9.93261 160.426 9.90626 160.373 9.90626H158.799C158.134 9.90626 157.6 10.0578 157.198 10.3542C156.796 10.6506 156.592 11.0919 156.592 11.6584C156.592 12.159 156.744 12.541 157.04 12.7913C157.337 13.0416 157.732 13.1668 158.226 13.1668C158.819 13.1734 159.339 13.0021 159.787 12.6596Z" fill="#EB6209"/>
<path d="M132.964 29.6144C133.287 29.3904 133.524 29.0808 133.689 28.6856C133.728 28.5605 133.814 28.5144 133.932 28.5407L135.322 28.8437C135.461 28.8832 135.507 28.9689 135.467 29.0874C135.21 29.891 134.762 30.5168 134.117 30.9647C133.478 31.4126 132.694 31.6366 131.772 31.6366C130.711 31.6366 129.855 31.3731 129.196 30.8396C128.544 30.306 128.129 29.5815 127.951 28.6527C127.886 28.2707 127.839 27.8689 127.82 27.4407C127.8 27.0126 127.787 26.4461 127.787 25.7347C127.787 25.0431 127.82 24.4898 127.892 24.0814C128.017 23.1263 128.419 22.3622 129.098 21.7826C129.776 21.2029 130.632 20.9131 131.673 20.9131C132.799 20.9131 133.715 21.2358 134.407 21.8748C135.098 22.5137 135.487 23.3568 135.573 24.4041C135.612 24.8652 135.632 25.7149 135.632 26.9599C135.632 27.0982 135.566 27.1641 135.428 27.1641H129.835C129.783 27.1641 129.756 27.1904 129.756 27.2431C129.756 27.6251 129.776 27.9545 129.816 28.2443C129.881 28.7449 130.092 29.1533 130.448 29.4695C130.804 29.7856 131.252 29.9371 131.798 29.9371C132.253 29.9503 132.641 29.8383 132.964 29.6144ZM130.408 23.0868C130.072 23.4029 129.875 23.8113 129.802 24.3119C129.763 24.6808 129.743 25.0826 129.743 25.5173C129.743 25.57 129.769 25.5964 129.822 25.5964H133.577C133.629 25.5964 133.656 25.57 133.656 25.5173C133.629 24.9706 133.603 24.5754 133.577 24.3317C133.511 23.8311 133.307 23.4161 132.964 23.0933C132.622 22.7706 132.193 22.6125 131.68 22.6125C131.166 22.6191 130.744 22.7772 130.408 23.0868Z" fill="#EB6209"/>
<path d="M137.151 31.4059C137.125 31.3598 137.131 31.3005 137.171 31.2346L140.069 26.3538C140.095 26.3142 140.095 26.2747 140.069 26.2286L137.171 21.3279C137.145 21.2752 137.131 21.2357 137.131 21.2028C137.131 21.1237 137.191 21.0776 137.316 21.0776H138.989C139.081 21.0776 139.167 21.1237 139.233 21.2225L141.169 24.5489C141.182 24.5621 141.202 24.5687 141.228 24.5687C141.255 24.5687 141.275 24.5621 141.288 24.5489L143.231 21.2225C143.297 21.1303 143.382 21.0776 143.475 21.0776H145.207C145.286 21.0776 145.345 21.104 145.372 21.1501C145.398 21.1962 145.391 21.2555 145.352 21.3213L142.454 26.222C142.44 26.2615 142.44 26.3011 142.454 26.3472L145.352 31.2281C145.378 31.2808 145.391 31.3269 145.391 31.3532C145.391 31.4323 145.332 31.4784 145.207 31.4784H143.534C143.435 31.4784 143.356 31.4323 143.29 31.3335L141.347 27.9873C141.334 27.961 141.314 27.9478 141.288 27.9478C141.261 27.9478 141.242 27.961 141.228 27.9873L139.285 31.3335C139.219 31.4257 139.134 31.4784 139.042 31.4784H137.309C137.23 31.4784 137.177 31.4586 137.151 31.4059Z" fill="#EB6209"/>
<path d="M155.237 26.2548C155.237 27.1243 155.171 27.9015 155.032 28.58C154.624 30.6219 153.524 31.6429 151.726 31.6429C150.731 31.6429 150 31.2938 149.519 30.6022C149.506 30.5627 149.486 30.5429 149.46 30.5495C149.434 30.5561 149.42 30.5824 149.42 30.6219V35.1735C149.42 35.3118 149.354 35.3777 149.216 35.3777H147.662C147.523 35.3777 147.457 35.3118 147.457 35.1735V21.2883C147.457 21.15 147.523 21.0841 147.662 21.0841H149.216C149.354 21.0841 149.42 21.15 149.42 21.2883V21.9404C149.42 21.9667 149.427 21.9865 149.453 21.9997C149.48 22.0129 149.499 22.0063 149.526 21.9799C150.026 21.2751 150.79 20.9194 151.811 20.9194C152.668 20.9194 153.353 21.1631 153.873 21.6572C154.393 22.1446 154.762 22.9021 154.999 23.9231C155.158 24.6344 155.237 25.4051 155.237 26.2548ZM153.26 26.2943C153.26 25.3261 153.181 24.5752 153.017 24.0284C152.865 23.5674 152.655 23.2117 152.384 22.9745C152.114 22.7374 151.752 22.6188 151.304 22.6188C150.883 22.6188 150.54 22.7374 150.283 22.9745C150.026 23.2117 149.829 23.5542 149.69 24.0087C149.526 24.5554 149.447 25.3129 149.447 26.2943C149.447 27.3021 149.532 28.0794 149.71 28.6195C149.848 29.0543 150.04 29.3836 150.29 29.6076C150.54 29.8315 150.869 29.9435 151.278 29.9435C152.068 29.9435 152.628 29.5153 152.951 28.659C153.155 28.0926 153.26 27.3021 153.26 26.2943Z" fill="#EB6209"/>
<path d="M162.409 29.6144C162.732 29.3904 162.969 29.0808 163.134 28.6856C163.173 28.5605 163.259 28.5144 163.377 28.5407L164.767 28.8437C164.905 28.8832 164.952 28.9689 164.912 29.0874C164.655 29.891 164.207 30.5168 163.562 30.9647C162.923 31.4126 162.139 31.6366 161.217 31.6366C160.156 31.6366 159.3 31.3731 158.641 30.8396C157.989 30.306 157.574 29.5815 157.396 28.6527C157.33 28.2707 157.284 27.8689 157.265 27.4407C157.245 27.0126 157.232 26.4461 157.232 25.7347C157.232 25.0431 157.265 24.4898 157.337 24.0814C157.462 23.1263 157.864 22.3622 158.542 21.7826C159.221 21.2029 160.077 20.9131 161.118 20.9131C162.244 20.9131 163.16 21.2358 163.852 21.8748C164.543 22.5137 164.932 23.3568 165.017 24.4041C165.057 24.8652 165.077 25.7149 165.077 26.9599C165.077 27.0982 165.011 27.1641 164.873 27.1641H159.28C159.228 27.1641 159.201 27.1904 159.201 27.2431C159.201 27.6251 159.221 27.9545 159.26 28.2443C159.326 28.7449 159.537 29.1533 159.893 29.4695C160.248 29.7856 160.696 29.9371 161.243 29.9371C161.698 29.9503 162.086 29.8383 162.409 29.6144ZM159.86 23.0868C159.524 23.4029 159.326 23.8113 159.254 24.3119C159.214 24.6808 159.195 25.0826 159.195 25.5173C159.195 25.57 159.221 25.5964 159.274 25.5964H163.028C163.081 25.5964 163.107 25.57 163.107 25.5173C163.081 24.9706 163.055 24.5754 163.028 24.3317C162.962 23.8311 162.758 23.4161 162.416 23.0933C162.073 22.7706 161.645 22.6125 161.131 22.6125C160.617 22.6191 160.189 22.7772 159.86 23.0868Z" fill="#EB6209"/>
<path d="M172.767 21.2293C172.859 21.2688 172.898 21.3545 172.865 21.473L172.562 23.0275C172.549 23.1659 172.47 23.2054 172.319 23.1527C172.114 23.0868 171.89 23.0473 171.647 23.0473C171.469 23.0473 171.337 23.0539 171.258 23.0671C170.725 23.1066 170.283 23.3503 169.928 23.7916C169.572 24.2329 169.394 24.7599 169.394 25.3725V31.2743C169.394 31.4127 169.328 31.4785 169.19 31.4785H167.635C167.497 31.4785 167.431 31.4127 167.431 31.2743V21.2886C167.431 21.1503 167.497 21.0844 167.635 21.0844H169.19C169.328 21.0844 169.394 21.1503 169.394 21.2886V22.5928C169.394 22.6323 169.407 22.6587 169.427 22.6652C169.447 22.6718 169.466 22.6652 169.48 22.6323C169.967 21.5323 170.718 20.979 171.726 20.979C172.134 20.9856 172.483 21.0646 172.767 21.2293Z" fill="#EB6209"/>
<path d="M179.1 22.5992H177.282C177.229 22.5992 177.203 22.6256 177.203 22.6783V28.2705C177.203 28.8304 177.315 29.219 177.539 29.443C177.763 29.667 178.112 29.7789 178.592 29.7789H178.981C179.119 29.7789 179.185 29.8448 179.185 29.9831V31.2676C179.185 31.4059 179.119 31.4718 178.981 31.4718L178.184 31.4915C177.229 31.4915 176.511 31.3137 176.03 30.9514C175.549 30.5891 175.306 29.9173 175.306 28.9424V22.6717C175.306 22.619 175.279 22.5926 175.227 22.5926H174.225C174.087 22.5926 174.021 22.5268 174.021 22.3884V21.2884C174.021 21.1501 174.087 21.0842 174.225 21.0842H175.227C175.279 21.0842 175.306 21.0579 175.306 21.0052V18.6602C175.306 18.5219 175.371 18.4561 175.51 18.4561H176.998C177.137 18.4561 177.203 18.5219 177.203 18.6602V21.0052C177.203 21.0579 177.229 21.0842 177.282 21.0842H179.1C179.238 21.0842 179.304 21.1501 179.304 21.2884V22.3884C179.304 22.5268 179.238 22.5992 179.1 22.5992Z" fill="#EB6209"/>
<path d="M181.897 30.8262C181.225 30.3058 180.883 29.6405 180.883 28.8238V28.6196C180.883 28.4812 180.948 28.4154 181.087 28.4154H182.536C182.674 28.4154 182.74 28.4812 182.74 28.6196V28.7447C182.74 29.1136 182.918 29.4298 183.274 29.7064C183.629 29.9765 184.064 30.1148 184.578 30.1148C185.092 30.1148 185.513 29.9831 185.836 29.7262C186.159 29.4693 186.317 29.1465 186.317 28.7645C186.317 28.4681 186.225 28.2178 186.04 28.0267C185.856 27.8357 185.632 27.6842 185.368 27.5657C185.105 27.4537 184.71 27.3022 184.196 27.1243C183.557 26.9201 183.017 26.7028 182.575 26.4788C182.134 26.2549 181.752 25.9321 181.443 25.5171C181.126 25.1022 180.975 24.5752 180.975 23.9363C180.975 23.0273 181.298 22.3027 181.943 21.7692C182.589 21.2356 183.452 20.9722 184.525 20.9722C185.612 20.9722 186.488 21.2422 187.147 21.7889C187.805 22.3357 188.135 23.047 188.135 23.9363V23.9758C188.135 24.1141 188.069 24.18 187.931 24.18H186.501C186.363 24.18 186.297 24.1141 186.297 23.9758V23.8968C186.297 23.5015 186.132 23.1788 185.81 22.9153C185.48 22.6584 185.052 22.5267 184.525 22.5267C184.025 22.5267 183.616 22.6518 183.313 22.8956C183.01 23.1393 182.852 23.4554 182.852 23.8375C182.852 24.1207 182.938 24.3578 183.116 24.5423C183.293 24.7267 183.511 24.8782 183.781 25.0034C184.044 25.1285 184.44 25.2734 184.953 25.4513C185.632 25.6818 186.192 25.9058 186.64 26.1231C187.081 26.3405 187.47 26.6567 187.792 27.0651C188.122 27.4734 188.28 28.0004 188.28 28.6393C188.28 29.5483 187.944 30.2729 187.279 30.8064C186.613 31.34 185.711 31.6034 184.584 31.6034C183.465 31.6034 182.569 31.3465 181.897 30.8262Z" fill="#EB6209"/>
</svg>
